<svg width="1864" height="316" viewBox="0 0 1864 316" fill="none" xmlns="http://www.w3.org/2000/svg">
<g clip-path="url(#clip0_39_55)">
<path d="M158 316C70.8722 316 0 245.128 0 158C0 70.8722 70.8722 0 158 0C245.128 0 316 70.8722 316 158C316 245.128 245.128 316 158 316ZM158 9.93971C76.308 9.93971 9.88794 76.3598 9.88794 158C9.88794 239.64 76.308 306.112 158 306.112C239.692 306.112 306.112 239.692 306.112 158C306.112 76.308 239.64 9.93971 158 9.93971Z" fill="#40514E"/>
<path d="M125.437 173.065C125.437 173.065 66.6789 152.098 59.9489 79.8799C59.9489 79.8799 116.999 93.3399 125.437 173.065Z" fill="#40514E"/>
<path d="M160.278 213.289C160.278 213.289 217.379 238.501 271.944 190.77C271.893 190.77 221.262 161.21 160.278 213.289Z" fill="#40514E"/>
<path d="M196.465 116.895C196.465 116.895 232.91 132.995 267.751 102.503C267.751 102.503 235.395 83.6074 196.465 116.895Z" fill="#40514E"/>
<path d="M168.664 79.2586C168.664 79.2586 137.499 68.18 133.72 29.5083C133.668 29.5083 163.953 36.5489 168.664 79.2586Z" fill="#40514E"/>
<path d="M169.596 273.187C179.861 273.187 188.181 264.866 188.181 254.602C188.181 244.337 179.861 236.016 169.596 236.016C159.332 236.016 151.011 244.337 151.011 254.602C151.011 264.866 159.332 273.187 169.596 273.187Z" fill="#40514E"/>
<path d="M94.0648 212.772C104.329 212.772 112.65 204.451 112.65 194.187C112.65 183.922 104.329 175.602 94.0648 175.602C83.8005 175.602 75.4796 183.922 75.4796 194.187C75.4796 204.451 83.8005 212.772 94.0648 212.772Z" fill="#40514E"/>
<path d="M92.0459 297.829C92.0459 297.725 92.0977 297.674 92.0977 297.57C103.59 255.326 134.963 152.823 221.21 16.9285L228.458 20.7076C228.458 20.7076 133.513 217.12 119.121 305.387L92.0977 297.57" fill="#40514E"/>
</g>
<path d="M1812.37 167.119C1812.57 160.673 1811.39 155.204 1808.85 150.711C1806.51 146.023 1803.09 142.409 1798.6 139.87C1794.11 137.331 1788.93 136.061 1783.07 136.061C1776.23 136.061 1770.37 137.917 1765.49 141.628C1760.8 145.144 1757.09 150.125 1754.36 156.571C1751.82 162.822 1750.55 170.147 1750.55 178.546C1750.55 187.727 1752.11 195.638 1755.24 202.279C1758.36 208.92 1762.76 214.097 1768.42 217.808C1774.28 221.324 1781.02 223.082 1788.64 223.082C1802.7 223.082 1815.11 217.71 1825.85 206.967L1853.1 233.923C1845.09 242.713 1835.22 249.55 1823.5 254.433C1811.98 259.316 1798.79 261.758 1783.95 261.758C1766.76 261.758 1751.82 258.437 1739.12 251.796C1726.62 245.155 1716.95 235.779 1710.11 223.668C1703.47 211.557 1700.15 197.493 1700.15 181.476C1700.15 165.068 1703.57 150.809 1710.41 138.698C1717.24 126.392 1726.91 116.918 1739.41 110.277C1751.91 103.44 1766.37 100.022 1782.78 100.022C1801.33 100.022 1816.67 103.929 1828.78 111.742C1841.08 119.36 1850.07 130.299 1855.73 144.558C1861.59 158.817 1863.94 175.518 1862.77 194.661H1743.22V167.119H1812.37Z" fill="#40514E"/>
<path d="M1702 146.609C1691.65 145.437 1682.57 146.316 1674.75 149.246C1667.13 152.176 1661.18 156.669 1656.88 162.724C1652.78 168.584 1650.73 175.714 1650.73 184.113L1638.42 181.769C1638.42 164.58 1640.96 149.832 1646.04 137.526C1651.31 125.22 1658.73 115.844 1668.31 109.398C1677.88 102.757 1689.11 99.436 1702 99.436V146.609ZM1598.87 101.78H1651.02V260H1598.87V101.78Z" fill="#40514E"/>
<path d="M1493.21 192.61C1485.79 192.61 1480.22 193.977 1476.51 196.712C1473 199.251 1471.24 203.353 1471.24 209.018C1471.24 214.683 1473.09 219.175 1476.81 222.496C1480.52 225.621 1485.79 227.184 1492.63 227.184C1497.9 227.184 1502.69 226.305 1506.98 224.547C1511.48 222.789 1515.19 220.347 1518.12 217.222C1521.24 213.901 1523.29 210.19 1524.27 206.088L1531.6 229.235C1527.3 239.978 1520.46 248.182 1511.09 253.847C1501.71 259.512 1490.19 262.344 1476.51 262.344C1465.18 262.344 1455.42 260.195 1447.21 255.898C1439.2 251.601 1433.05 245.741 1428.75 238.318C1424.46 230.895 1422.31 222.398 1422.31 212.827C1422.31 197.786 1427.48 186.066 1437.84 177.667C1448.38 169.268 1463.43 164.97 1482.96 164.775H1529.25V192.61H1493.21ZM1524.27 163.017C1524.27 155.399 1521.73 149.441 1516.65 145.144C1511.57 140.847 1504.05 138.698 1494.09 138.698C1487.45 138.698 1480.03 139.772 1471.82 141.921C1463.62 144.07 1455.22 147.293 1446.63 151.59L1432.27 117.016C1440.67 113.305 1448.78 110.179 1456.59 107.64C1464.6 104.905 1472.7 102.854 1480.91 101.487C1489.11 100.12 1497.51 99.436 1506.11 99.436C1528.18 99.436 1545.17 104.515 1557.09 114.672C1569.2 124.634 1575.35 138.698 1575.55 156.864V260H1524.27V163.017Z" fill="#40514E"/>
<path d="M1393.73 123.462C1387.09 115.063 1379.18 108.421 1370 103.538C1360.82 98.6547 1351.74 96.213 1342.75 96.213C1334.94 96.213 1327.61 97.7757 1320.78 100.901C1313.94 103.831 1307.98 108.031 1302.9 113.5C1297.82 118.774 1293.92 125.122 1291.18 132.545C1288.45 139.772 1287.08 147.683 1287.08 156.278C1287.08 164.873 1288.45 172.881 1291.18 180.304C1293.92 187.531 1297.82 193.88 1302.9 199.349C1307.98 204.818 1313.94 209.116 1320.78 212.241C1327.61 215.171 1334.94 216.636 1342.75 216.636C1351.35 216.636 1360.14 214.487 1369.12 210.19C1378.3 205.697 1386.51 199.74 1393.73 192.317L1425.08 225.426C1417.66 233.239 1409.26 240.076 1399.89 245.936C1390.51 251.601 1380.65 255.996 1370.29 259.121C1360.14 262.246 1349.98 263.809 1339.82 263.809C1324.39 263.809 1310.13 261.172 1297.04 255.898C1283.96 250.429 1272.53 242.908 1262.76 233.337C1253.19 223.57 1245.67 212.241 1240.2 199.349C1234.73 186.262 1232 172.1 1232 156.864C1232 141.823 1234.73 127.955 1240.2 115.258C1245.67 102.366 1253.39 91.1344 1263.35 81.563C1273.31 71.9917 1284.93 64.569 1298.22 59.295C1311.69 54.021 1326.25 51.384 1341.87 51.384C1352.03 51.384 1362.19 52.849 1372.34 55.779C1382.5 58.5137 1392.07 62.518 1401.06 67.792C1410.04 73.066 1417.95 79.3167 1424.79 86.544L1393.73 123.462Z" fill="#40514E"/>
<path d="M1072.28 192.61C1064.86 192.61 1059.29 193.977 1055.58 196.712C1052.06 199.251 1050.3 203.353 1050.3 209.018C1050.3 214.683 1052.16 219.175 1055.87 222.496C1059.58 225.621 1064.86 227.184 1071.69 227.184C1076.97 227.184 1081.75 226.305 1086.05 224.547C1090.54 222.789 1094.25 220.347 1097.18 217.222C1100.31 213.901 1102.36 210.19 1103.34 206.088L1110.66 229.235C1106.36 239.978 1099.53 248.182 1090.15 253.847C1080.77 259.512 1069.25 262.344 1055.58 262.344C1044.25 262.344 1034.48 260.195 1026.28 255.898C1018.27 251.601 1012.12 245.741 1007.82 238.318C1003.52 230.895 1001.37 222.398 1001.37 212.827C1001.37 197.786 1006.55 186.066 1016.9 177.667C1027.45 169.268 1042.49 164.97 1062.02 164.775H1108.32V192.61H1072.28ZM1103.34 163.017C1103.34 155.399 1100.8 149.441 1095.72 145.144C1090.64 140.847 1083.12 138.698 1073.16 138.698C1066.52 138.698 1059.09 139.772 1050.89 141.921C1042.68 144.07 1034.29 147.293 1025.69 151.59L1011.33 117.016C1019.73 113.305 1027.84 110.179 1035.65 107.64C1043.66 104.905 1051.77 102.854 1059.97 101.487C1068.18 100.12 1076.58 99.436 1085.17 99.436C1107.24 99.436 1124.24 104.515 1136.15 114.672C1148.26 124.634 1154.42 138.698 1154.61 156.864V260H1103.34V163.017Z" fill="#40514E"/>
<path d="M839.769 101.78H893.388L926.497 212.534L959.899 101.78H1012.05L952.574 260H898.955L839.769 101.78Z" fill="#40514E"/>
<path d="M800.525 167.119C800.72 160.673 799.548 155.204 797.009 150.711C794.665 146.023 791.247 142.409 786.754 139.87C782.261 137.331 777.085 136.061 771.225 136.061C764.388 136.061 758.528 137.917 753.645 141.628C748.957 145.144 745.246 150.125 742.511 156.571C739.972 162.822 738.702 170.147 738.702 178.546C738.702 187.727 740.265 195.638 743.39 202.279C746.515 208.92 750.91 214.097 756.575 217.808C762.435 221.324 769.174 223.082 776.792 223.082C790.856 223.082 803.26 217.71 814.003 206.967L841.252 233.923C833.243 242.713 823.379 249.55 811.659 254.433C800.134 259.316 786.949 261.758 772.104 261.758C754.915 261.758 739.972 258.437 727.275 251.796C714.774 245.155 705.105 235.779 698.268 223.668C691.627 211.557 688.306 197.493 688.306 181.476C688.306 165.068 691.724 150.809 698.561 138.698C705.398 126.392 715.067 116.918 727.568 110.277C740.069 103.44 754.524 100.022 770.932 100.022C789.489 100.022 804.822 103.929 816.933 111.742C829.239 119.36 838.224 130.299 843.889 144.558C849.749 158.817 852.093 175.518 850.921 194.661H731.377V167.119H800.525Z" fill="#40514E"/>
<path d="M619.387 42.594H671.541V260H619.387V42.594Z" fill="#40514E"/>
<path d="M431.924 54.6069H593.953V96.7989H485.543V136.061H583.405V177.96H485.543V217.808H596.883V260H431.924V54.6069Z" fill="#40514E"/>
<defs>
<clipPath id="clip0_39_55">
<rect width="316" height="316" fill="white"/>
</clipPath>
</defs>
</svg>
